<svg width="27" height="28" viewBox="0 0 27 28" fill="none" xmlns="http://www.w3.org/2000/svg">
<path d="M22.2188 3.73438C25.4062 6.45313 27 9.875 27 14C27 17.75 25.6875 20.9375 23.0625 23.5625C20.4375 26.1875 17.25 27.5 13.5 27.5C9.75 27.5 6.5625 26.1875 3.9375 23.5625C1.3125 20.9375 0 17.75 0 14C0 12.3125 0.46875 10.4609 1.40625 8.44531C2.34375 6.42969 3.46875 4.85938 4.78125 3.73438L6.89062 5.84375C5.8125 6.73438 4.89844 7.97656 4.14844 9.57031C3.39844 11.1641 3.02344 12.6406 3.02344 14C3.02344 16.9062 4.03125 19.3906 6.04688 21.4531C8.10938 23.4688 10.5938 24.4766 13.5 24.4766C16.4062 24.4766 18.8672 23.4688 20.8828 21.4531C22.9453 19.3906 23.9766 16.9062 23.9766 14C23.9766 12.6406 23.6016 11.1641 22.8516 9.57031C22.1016 7.97656 21.1875 6.75781 20.1094 5.91406L22.2188 3.73438ZM14.9766 0.5V15.4766H12.0234V0.5H14.9766Z" fill="#999591"/>
</svg>
